<?xml version="1.0" encoding="utf-8"?>
<!-- Generator: Adobe Illustrator 23.0.2, SVG Export Plug-In . SVG Version: 6.00 Build 0)  -->
<svg version="1.1" id="Camada_1" xmlns="http://www.w3.org/2000/svg" xmlns:xlink="http://www.w3.org/1999/xlink" x="0px" y="0px"
	 viewBox="0 0 16 16" style="enable-background:new 0 0 16 16;" xml:space="preserve">
<style type="text/css">
	.st0{fill:#04BEAA;}
	.st1{fill:#FFFFFF;}
	.st2{display:none;fill:#3E3E3E;}
</style>
<circle class="st0" cx="8.22" cy="8" r="6.14"/>
<g>
	<path class="st1" d="M12.11,9.17c-0.06,0.32-0.26,0.55-0.48,0.77c-0.09,0.09-0.17,0.18-0.29,0.24c-0.05,0.02-0.03,0.06-0.03,0.1
		c0.02,0.17,0.09,0.34,0.12,0.51c0.03,0.23,0.08,0.46,0.12,0.69c0.03,0.14-0.08,0.2-0.15,0.26c-0.13,0.13-0.24,0.28-0.38,0.41
		c-0.1,0.09-0.19,0.2-0.29,0.3c-0.07-0.11-0.13-0.22-0.18-0.33c-0.13-0.29-0.29-0.57-0.43-0.86c-0.17-0.35-0.35-0.7-0.53-1.05
		C9.43,9.89,9.27,9.57,9.1,9.24c-0.07-0.13-0.14-0.27-0.2-0.4C8.88,8.8,8.87,8.8,8.83,8.82C8.71,8.88,8.62,8.98,8.51,9.06
		C8.28,9.22,8.06,9.41,7.83,9.58c-0.45,0.34-0.91,0.68-1.37,1.02c-0.22,0.16-0.43,0.33-0.65,0.49c-0.04,0.03-0.06,0.07-0.05,0.13
		c0.07,0.35,0.13,0.7,0.2,1.04c0.02,0.1,0.06,0.19,0.07,0.29c0,0.03,0.02,0.06-0.02,0.08c-0.14,0.08-0.22,0.22-0.35,0.31
		c-0.04,0.02-0.05,0.03-0.08,0c-0.19-0.17-0.38-0.35-0.56-0.52c-0.35-0.32-0.71-0.65-1.06-0.97c-0.24-0.22-0.48-0.44-0.73-0.66
		c-0.16-0.13-0.29-0.29-0.47-0.41c0.12-0.12,0.24-0.23,0.36-0.34c0.05-0.05,0.12-0.03,0.18-0.02c0.47,0.08,0.94,0.16,1.41,0.24
		c0.06,0.01,0.09,0,0.13-0.04c0.27-0.31,0.55-0.61,0.83-0.92c0.17-0.19,0.34-0.38,0.52-0.57c0.26-0.29,0.52-0.58,0.78-0.86
		C7.09,7.75,7.19,7.6,7.33,7.49C7.39,7.45,7.37,7.42,7.31,7.4C6.6,7.1,5.88,6.81,5.17,6.51C4.7,6.32,4.24,6.12,3.77,5.92
		C3.63,5.87,3.49,5.81,3.34,5.74C3.67,5.5,3.98,5.26,4.29,5.01c0.05-0.04,0.09-0.03,0.14-0.02C4.87,5.06,5.3,5.13,5.74,5.2
		c0.07,0.01,0.1-0.01,0.15-0.06c0.28-0.3,0.6-0.54,1-0.66C7,4.45,7.12,4.44,7.24,4.47C7.4,4.5,7.48,4.59,7.49,4.76
		C7.5,4.97,7.38,5.28,7.22,5.44C7.47,5.48,7.7,5.52,7.94,5.56C8.3,5.62,8.67,5.67,9.03,5.74c0.15,0.03,0.24-0.06,0.34-0.13
		c0.39-0.28,0.78-0.56,1.17-0.84c0.25-0.18,0.49-0.36,0.75-0.51c0.27-0.16,0.55-0.3,0.88-0.29c0.37,0.01,0.62,0.34,0.49,0.7
		c-0.12,0.33-0.3,0.63-0.55,0.88c-0.11,0.11-0.2,0.24-0.3,0.36c-0.22,0.25-0.43,0.52-0.65,0.76c-0.13,0.14-0.24,0.3-0.38,0.43
		c-0.05,0.05-0.05,0.1-0.04,0.16c0.04,0.2,0.06,0.4,0.11,0.6c0.1,0.35,0.13,0.71,0.21,1.06c0.14-0.05,0.26-0.14,0.41-0.18
		c0.11-0.03,0.22-0.05,0.34-0.06c0.21-0.01,0.38,0.18,0.36,0.39C12.13,9.1,12.14,9.14,12.11,9.17z"/>
	<path class="st2" d="M12.11,9.17c0-0.04-0.02-0.08,0.04-0.1C12.16,9.11,12.16,9.15,12.11,9.17z"/>
</g>
</svg>
